<svg width="367" height="379" viewBox="0 0 367 379" fill="none" xmlns="http://www.w3.org/2000/svg">
<path fill-rule="evenodd" clip-rule="evenodd" d="M97.5 104.454V104.455H21.6667V104.303C9.4793 102.936 0 92.4506 0 79.718C0 66.0565 10.9131 54.9816 24.375 54.9816C25.2906 54.9816 26.1943 55.0329 27.0837 55.1326C27.0834 55.0824 27.0833 55.0322 27.0833 54.9819C27.0833 36.7665 41.6341 22 59.5833 22C72.134 22 83.023 29.2197 88.4379 39.7899C91.3142 38.944 94.3549 38.4907 97.5 38.4907C115.449 38.4907 130 53.2572 130 71.4726C130 89.688 115.449 104.454 97.5 104.454Z" fill="url(#paint0_linear_202_144)"/>
<path d="M30.3333 82.6667V100M30.3333 117.333V100M30.3333 100H47.6667M30.3333 100H13M30.3333 100L17.3333 87M30.3333 100L43.3333 113M30.3333 100L17.3333 113M30.3333 100L43.3333 87" stroke="url(#paint1_linear_202_144)" stroke-width="4.33333" stroke-linecap="round" stroke-linejoin="round"/>
<path d="M91 65.3333V82.6666M91 100V82.6666M91 82.6666H108.333M91 82.6666H73.6667M91 82.6666L78 69.6666M91 82.6666L104 95.6666M91 82.6666L78 95.6666M91 82.6666L104 69.6666" stroke="url(#paint2_linear_202_144)" stroke-width="4.33333" stroke-linecap="round" stroke-linejoin="round"/>
<path d="M104 113V130.333M104 147.667V130.333M104 130.333H121.333M104 130.333H86.6667M104 130.333L91 117.333M104 130.333L117 143.333M104 130.333L91 143.333M104 130.333L117 117.333" stroke="url(#paint3_linear_202_144)" stroke-width="4.33333" stroke-linecap="round" stroke-linejoin="round"/>
<g filter="url(#filter0_d_202_144)">
<ellipse cx="65" cy="262.5" rx="65" ry="69.5" fill="url(#paint4_linear_202_144)"/>
</g>
<g filter="url(#filter1_d_202_144)">
<circle cx="237.2" cy="259.2" r="46.2" fill="url(#paint5_linear_202_144)"/>
<path fill-rule="evenodd" clip-rule="evenodd" d="M290 321.9C308.226 321.9 323 307.125 323 288.9C323 270.675 308.225 255.9 290 255.9C286.807 255.9 283.719 256.354 280.799 257.2C275.3 246.624 264.244 239.4 251.5 239.4C233.275 239.4 218.5 254.175 218.5 272.4C218.5 272.45 218.5 272.501 218.5 272.551C217.597 272.451 216.68 272.4 215.75 272.4C202.081 272.4 191 283.481 191 297.15C191 309.89 200.625 320.381 213 321.749V321.9L215.75 321.9L290 321.9C290 321.9 290 321.9 290 321.9Z" fill="url(#paint6_linear_202_144)"/>
</g>
<g filter="url(#filter2_d_202_144)">
<path fill-rule="evenodd" clip-rule="evenodd" d="M204.328 86.229C241.148 86.229 270.997 56.8338 270.997 20.5729C270.997 13.3871 269.825 6.47101 267.659 -0.000183105C298.092 6.08095 321 32.5778 321 64.3437C321 100.605 291.151 130 254.33 130C224.807 130 199.765 111.101 191 84.9168C195.306 85.7773 199.763 86.229 204.328 86.229Z" fill="url(#paint7_linear_202_144)"/>
</g>
<defs>
<filter id="filter0_d_202_144" x="0" y="193" width="176.333" height="185.333" filterUnits="userSpaceOnUse" color-interpolation-filters="sRGB">
<feFlood flood-opacity="0" result="BackgroundImageFix"/>
<feColorMatrix in="SourceAlpha" type="matrix" values="0 0 0 0 0 0 0 0 0 0 0 0 0 0 0 0 0 0 127 0" result="hardAlpha"/>
<feOffset dx="23.1667" dy="23.1667"/>
<feGaussianBlur stdDeviation="11.5833"/>
<feColorMatrix type="matrix" values="0 0 0 0 0 0 0 0 0 0 0 0 0 0 0 0 0 0 0.25 0"/>
<feBlend mode="normal" in2="BackgroundImageFix" result="effect1_dropShadow_202_144"/>
<feBlend mode="normal" in="SourceGraphic" in2="effect1_dropShadow_202_144" result="shape"/>
</filter>
<filter id="filter1_d_202_144" x="191" y="202" width="176" height="174" filterUnits="userSpaceOnUse" color-interpolation-filters="sRGB">
<feFlood flood-opacity="0" result="BackgroundImageFix"/>
<feColorMatrix in="SourceAlpha" type="matrix" values="0 0 0 0 0 0 0 0 0 0 0 0 0 0 0 0 0 0 127 0" result="hardAlpha"/>
<feOffset dx="22" dy="22"/>
<feGaussianBlur stdDeviation="11"/>
<feColorMatrix type="matrix" values="0 0 0 0 0 0 0 0 0 0 0 0 0 0 0 0 0 0 0.25 0"/>
<feBlend mode="normal" in2="BackgroundImageFix" result="effect1_dropShadow_202_144"/>
<feBlend mode="normal" in="SourceGraphic" in2="effect1_dropShadow_202_144" result="shape"/>
</filter>
<filter id="filter2_d_202_144" x="191" y="-0.000183105" width="173.334" height="173.334" filterUnits="userSpaceOnUse" color-interpolation-filters="sRGB">
<feFlood flood-opacity="0" result="BackgroundImageFix"/>
<feColorMatrix in="SourceAlpha" type="matrix" values="0 0 0 0 0 0 0 0 0 0 0 0 0 0 0 0 0 0 127 0" result="hardAlpha"/>
<feOffset dx="21.6667" dy="21.6667"/>
<feGaussianBlur stdDeviation="10.8333"/>
<feColorMatrix type="matrix" values="0 0 0 0 0 0 0 0 0 0 0 0 0 0 0 0 0 0 0.25 0"/>
<feBlend mode="normal" in2="BackgroundImageFix" result="effect1_dropShadow_202_144"/>
<feBlend mode="normal" in="SourceGraphic" in2="effect1_dropShadow_202_144" result="shape"/>
</filter>
<linearGradient id="paint0_linear_202_144" x1="32.7257" y1="72.5722" x2="70.832" y2="119.509" gradientUnits="userSpaceOnUse">
<stop stop-color="white"/>
<stop offset="1" stop-color="#BDE0F5"/>
</linearGradient>
<linearGradient id="paint1_linear_202_144" x1="30.3333" y1="82.6667" x2="30.3333" y2="117.333" gradientUnits="userSpaceOnUse">
<stop stop-color="#94CCFD"/>
<stop offset="1" stop-color="#4EA8F4"/>
</linearGradient>
<linearGradient id="paint2_linear_202_144" x1="91" y1="65.3333" x2="91" y2="100" gradientUnits="userSpaceOnUse">
<stop stop-color="#94CCFD"/>
<stop offset="1" stop-color="#4EA8F4"/>
</linearGradient>
<linearGradient id="paint3_linear_202_144" x1="104" y1="113" x2="104" y2="147.667" gradientUnits="userSpaceOnUse">
<stop stop-color="#94CCFD"/>
<stop offset="1" stop-color="#4EA8F4"/>
</linearGradient>
<linearGradient id="paint4_linear_202_144" x1="0" y1="193" x2="138.689" y2="322.709" gradientUnits="userSpaceOnUse">
<stop stop-color="#FFE975"/>
<stop offset="1" stop-color="#FF9900"/>
</linearGradient>
<linearGradient id="paint5_linear_202_144" x1="191" y1="213" x2="233.9" y2="255.9" gradientUnits="userSpaceOnUse">
<stop stop-color="#FAE26F"/>
<stop offset="1" stop-color="#F7BC3D"/>
</linearGradient>
<linearGradient id="paint6_linear_202_144" x1="224.229" y1="290" x2="262.237" y2="337.51" gradientUnits="userSpaceOnUse">
<stop stop-color="white"/>
<stop offset="1" stop-color="#BDE0F5"/>
</linearGradient>
<linearGradient id="paint7_linear_202_144" x1="268.219" y1="79.3343" x2="298.308" y2="109.887" gradientUnits="userSpaceOnUse">
<stop stop-color="#FBDF00"/>
<stop offset="1" stop-color="#FAAE00"/>
</linearGradient>
</defs>
</svg>
